<?xml version="1.0" encoding="UTF-8"?>
<svg xmlns="http://www.w3.org/2000/svg" xmlns:xlink="http://www.w3.org/1999/xlink" width="500pt" height="500pt" viewBox="0 0 500 500" version="1.1">
<g id="surface12787470">
<path style=" stroke:none;fill-rule:nonzero;fill:rgb(100%,100%,100%);fill-opacity:1;" d="M 410 40 L 90 40 C 62.398438 40 40 62.398438 40 90 L 40 410 C 40 437.601562 62.398438 460 90 460 L 410 460 C 437.601562 460 460 437.601562 460 410 L 460 90 C 460 62.398438 437.601562 40 410 40 Z M 170 200 L 170 390 L 110 390 L 110 200 Z M 110 144.699219 C 110 130.699219 122 120 140 120 C 158 120 169.300781 130.699219 170 144.699219 C 170 158.699219 158.800781 170 140 170 C 122 170 110 158.699219 110 144.699219 Z M 390 390 L 330 390 C 330 390 330 297.398438 330 290 C 330 270 320 250 295 249.601562 L 294.199219 249.601562 C 270 249.601562 260 270.199219 260 290 C 260 299.101562 260 390 260 390 L 200 390 L 200 200 L 260 200 L 260 225.601562 C 260 225.601562 279.300781 200 318.101562 200 C 357.800781 200 390 227.300781 390 282.601562 Z M 390 390 "/>
</g>
</svg>
